<svg width="1073" height="200" viewBox="0 0 1073 200" fill="none" xmlns="http://www.w3.org/2000/svg">
<path d="M94.4114 112.506V133.432H32.0368V144.116H92.9585V164.845H32.0368V176.563H95.2733V197.907H0V112.506H94.4114Z" fill="white"/>
<path d="M141.1 112.506L190.719 161.078V112.506H222.952V197.907H190.3L136.914 146.208V197.907H104.68V112.506H141.1Z" fill="white"/>
<path d="M268.188 135.721H231.35V112.481H337.507V135.721H300.668V197.686H268.016V135.721H268.238H268.188Z" fill="white"/>
<path d="M440.512 112.506V133.432H378.334V144.116H439.256V164.845H378.334V176.563H441.571V197.907H346.322V112.506H440.734H440.512Z" fill="white"/>
<path d="M483.433 197.685H450.78V112.284H528.25C553.17 112.284 564.054 120.236 564.054 134.268V135.524C564.054 147.882 553.367 153.102 546.891 154.579C557.356 157.09 564.473 163.786 564.473 174.889V187.444C564.473 193.303 565.31 195.618 566.147 197.07V197.71H532.855C532.017 196.873 531.796 195.618 531.796 193.303V183.259C531.796 173.412 527.388 168.39 514.411 168.39H483.211V197.685H483.433ZM483.433 147.882H520.912C528.25 147.882 530.762 144.731 530.762 140.546C530.762 136.361 528.25 133.21 520.912 133.21H483.433V147.858V147.882Z" fill="white"/>
<path d="M606.114 171.098V197.883H573.462V112.481H644.652C676.27 112.481 685.061 125.037 685.061 140.743V142.639C685.061 158.124 675.852 171.098 644.652 171.098H606.139H606.114ZM606.114 149.754H640.663C648.198 149.754 651.35 146.603 651.35 141.999V141.58C651.35 136.558 648.198 133.826 640.663 133.826H606.114V149.729V149.754Z" fill="white"/>
<path d="M725.027 197.685H692.375V112.284H769.845C794.765 112.284 805.649 120.236 805.649 134.268V135.524C805.649 147.882 794.962 153.102 788.485 154.579C798.951 157.09 806.068 163.786 806.068 174.889V187.444C806.068 193.303 806.905 195.618 807.742 197.07V197.71H774.449C773.612 196.873 773.39 195.618 773.39 193.303V183.259C773.39 173.412 768.983 168.39 756.005 168.39H724.806V197.685H725.027ZM725.027 147.882H762.506C769.844 147.882 772.356 144.731 772.356 140.546C772.356 136.361 769.844 133.21 762.506 133.21H725.027V147.858V147.882Z" fill="white"/>
<path d="M847.708 197.685H815.253V112.284H847.708V197.685Z" fill="white"/>
<path d="M906.758 199.36C859.65 199.36 854.627 180.305 854.627 169.005V167.947H890.431C890.85 172.55 893.165 180.084 911.781 180.084H912.84C931.062 180.084 933.771 176.095 933.771 172.132C933.771 167.725 931.678 164.795 913.677 164.377L897.77 163.958C864.698 163.121 855.907 151.403 855.907 138.208V137.149C855.907 123.338 865.117 111.201 904.911 111.201H915.179C957.46 111.201 967.113 124.594 967.113 138.208V139.045H931.727C931.309 135.893 929.634 130.034 910.993 130.034H909.934C892.771 130.034 891.096 132.964 891.096 136.312C891.096 139.882 893.608 142.59 909.737 143.008L925.029 143.427C957.485 144.264 970.043 152.019 970.043 169.178V170.852C970.043 185.081 962.09 199.951 917.075 199.951H906.61L906.832 199.31L906.758 199.36Z" fill="white"/>
<path d="M1071.94 112.506V133.432H1009.76V144.116H1070.68V164.845H1009.76V176.563H1073V197.907H977.75V112.506H1072.16H1071.94Z" fill="white"/>
<path d="M530.124 88.5522L488.311 3.37248C488.138 3.02782 487.818 2.83087 487.449 2.83087H436.303C435.934 2.83087 435.589 3.05244 435.441 3.39709L400.819 78.5079C400.425 79.3695 399.12 79.0987 399.12 78.1386V44.1652C399.12 43.5744 398.652 43.082 398.086 43.082H344.404C343.837 43.082 343.369 43.5744 343.369 44.1652V57.4591C343.369 58.05 343.837 58.5423 344.404 58.5423H356.026C357.11 58.5423 356.938 59.4286 356.691 59.6502C353.466 62.7521 347.408 65.6571 336.007 65.6571C315.42 65.6571 310.914 54.8742 310.914 46.5532V45.1499C310.914 36.6073 314.977 26.9815 335.908 26.9815C351.299 26.9815 356.913 32.0283 359.08 35.6965C359.228 35.9426 359.474 36.0904 359.745 36.0904H398.553C398.997 36.0904 399.366 35.6965 399.341 35.2287C398.356 22.6487 389.122 1.20605 338.494 1.20605H334.307C278.803 1.20605 271.563 26.8584 271.563 44.436V47.9564C271.563 65.2878 279.37 91.6541 334.307 91.6541H338.494C350.708 91.6541 360.779 88.6014 368.708 84.0963C369.348 83.727 370.136 84.2193 370.136 84.9825V89.0199C370.136 89.5615 370.58 90.0293 371.097 90.0293H433.176C433.545 90.0293 433.89 89.8077 434.062 89.4385L438.716 78.5571C438.864 78.1878 439.209 77.9663 439.603 77.9663H482.943C483.312 77.9663 483.657 78.1878 483.804 78.5571L488.582 89.4631C488.729 89.8077 489.074 90.0539 489.443 90.0539H529.262C529.976 90.0539 530.444 89.2661 530.124 88.6014V88.5522ZM471.394 53.9387H450.807C450.118 53.9387 449.65 53.1755 449.945 52.5355L460.14 29.0987C460.485 28.3109 461.544 28.3109 461.888 29.0987L472.28 52.5355C472.576 53.2001 472.108 53.9633 471.418 53.9633L471.394 53.9387Z" fill="white"/>
<path d="M68.6536 26.9815C84.5858 26.9815 90.4219 32.0283 92.6874 35.6965C92.8351 35.9426 93.106 36.0904 93.3769 36.0904H133.614C134.082 36.0904 134.476 35.6965 134.426 35.2287C133.417 22.6487 123.838 1.20605 71.3623 1.20605H67.0284C9.45566 1.20605 1.96973 26.8584 1.96973 44.436V47.9564C1.96973 65.2878 10.0467 91.6541 67.0284 91.6541H71.3623C84.0195 91.6541 94.4604 88.6014 102.685 84.0963C103.35 83.727 104.163 84.2193 104.163 84.9825V89.0199C104.163 89.5615 104.606 90.0293 105.172 90.0293H133.244C133.786 90.0293 134.254 89.5862 134.254 89.0199V44.1652C134.254 43.5744 133.762 43.082 133.171 43.082H77.5185C76.9275 43.082 76.435 43.5744 76.435 44.1652V57.4591C76.435 58.05 76.9275 58.5423 77.5185 58.5423H89.56C90.6682 58.5423 90.4958 59.4286 90.2495 59.6502C86.9006 62.7521 80.6213 65.6571 68.8014 65.6571C47.4763 65.6571 42.773 54.8742 42.773 46.5532V45.1499C42.773 36.6073 46.9838 26.9815 68.6782 26.9815H68.6536Z" fill="white"/>
<path d="M269.322 27.5233V3.84041C269.322 3.2988 268.879 2.83105 268.313 2.83105H142.061C141.52 2.83105 141.052 3.27419 141.052 3.84041V27.5233C141.052 28.0649 141.495 28.5327 142.061 28.5327H184.736C185.278 28.5327 185.746 28.9758 185.746 29.542V63.3924C185.746 63.934 185.302 64.4017 184.736 64.4017H142.061C141.52 64.4017 141.052 64.8448 141.052 65.4111V89.0694C141.052 89.611 141.495 90.0787 142.061 90.0787H268.313C268.854 90.0787 269.322 89.6356 269.322 89.0694V65.4111C269.322 64.8695 268.879 64.4017 268.313 64.4017H226.13C225.589 64.4017 225.121 63.9586 225.121 63.3924V29.542C225.121 29.0004 225.564 28.5327 226.13 28.5327H268.313C268.854 28.5327 269.322 28.0895 269.322 27.5233Z" fill="white"/>
</svg>
